<svg
  version="1.1"
  baseProfile="full"
  width="100%" height="100%"
  xmlns="http://www.w3.org/2000/svg"
  viewBox="0 0 1400 800"

 
> <defs>
    <filter x="0" y="0" id="f1">
      <feGaussianBlur stdDeviation="4"/>
    </filter>
  </defs>

   <!-- 模糊 -->

   <!-- 旋转5 -->
  <path d="M 1300 420 l 100.3 -307.7 -261.8 190.4 323 0 -261.8 -190.4 100.3 307.7" stroke="#F9F871" fill="#F9F871" filter="url(#f1)">
    <animateTransform attributeType="XML" attributeName="transform" begin="0s" dur="35s" type="rotate" values="0 1300 230 ; -30 1300 230 ; 0 1300 230 " keyTimes="0 ; 0.5 ; 1" repeatCount="indefinite" />
  </path>

  <path d="M 1300 400 l 88.5 -271.5 -231 168 285 0 -231 -168 88.5 271.5" stroke="white" fill="white" >
    <animateTransform attributeType="XML" attributeName="transform" begin="0s" dur="35s" type="rotate" values="0 1300 230 ; -30 1300 230 ; 0 1300 230 " keyTimes="0 ; 0.5 ; 1" repeatCount="indefinite" />
  </path>

  <path d="M 425 350 l 53.1 -162.9 -138.6 100.8 171 0 -138.6 -100.8 53.1 162.9" stroke="#0095D6" fill="#0095D6" filter="url(#f1)">
    <animateTransform attributeType="XML" attributeName="transform" begin="0s" dur="35s" type="rotate" values="0 425 120 ; 30 425 120 ; 0 425 120 " keyTimes="0 ; 0.5 ; 1" repeatCount="indefinite" />
  </path>

  <path d="M 425 340 l 47.2 -144.8 -123.2 89.6 152 0 -123.2 -89.6 47.2 144.8" stroke="white" fill="white" >
    <animateTransform attributeType="XML" attributeName="transform" begin="0s" dur="35s" type="rotate" values="0 425 120 ; 30 425 120 ; 0 425 120 " keyTimes="0 ; 0.5 ; 1" repeatCount="indefinite" />
  </path>

 <!-- 旋转+平移5 -->
  <path d="M 100 360 l 53.1 -162.9 -138.6 100.8 171 0 -138.6 -100.8 53.1 162.9" stroke="#F390EA" fill="#F390EA" filter="url(#f1)">
    <animateMotion path="M 800 -200 L 800 -300 L 800 -200" dur="20s" begin="0s" repeatCount="indefinite" />
    <animateTransform attributeType="XML" attributeName="transform" begin="0s" dur="100s" type="rotate" values="0 210 530 ; -30 210 530 ; 0 210 530" keyTimes="0 ; 0.5 ; 1" repeatCount="indefinite" />
  </path>

  <path d="M 100 350 l 47.2 -144.8 -123.2 89.6 152 0 -123.2 -89.6 47.2 144.8" stroke="white" fill="white" >
    <animateMotion path="M 800 -200 L 800 -300 L 800 -200" dur="20s" begin="0s" repeatCount="indefinite" />
    <animateTransform attributeType="XML" attributeName="transform" begin="0s" dur="100s" type="rotate" values="0 210 530 ; -30 210 530 ; 0 210 530" keyTimes="0 ; 0.5 ; 1" repeatCount="indefinite" />
  </path>

  <!-- 四角形 -->
   <path d="M 465 505 l 11.6 -43.4 43.4 -11.6 -43.4 -11.6 -11.6 -43.4 -11.6 43.4 -43.4 11.6 43.4 11.6 11.6 43.4" stroke="#FFA98E" fill="#FFA98E" filter="url(#f1)">
    <animateTransform attributeType="XML" attributeName="transform" begin="0s" dur="70s" type="rotate" from="0 460 480" to="360 460 480" repeatCount="indefinite" />
  </path>

  <path d="M 465 500 l 10.6 -39.4 39.4 -10.6 -39.4 -10.6 -10.6 -39.4 -10.6 39.4 -39.4 10.6 39.4 10.6 10.6 39.4" stroke="white" fill="white">
    <animateTransform attributeType="XML" attributeName="transform" begin="0s" dur="70s" type="rotate" from="0 460 480" to="360 460 480" repeatCount="indefinite" />
  </path>

  <!-- 单独动圆 -->
  <circle cx="1200" cy="300" r="4" stroke="#FF91BE" fill="#FF91BE">
    <animateMotion path="M 0 300 L -20 100 Z" dur="30s" repeatCount="indefinite" />
  </circle>

  <circle cx="100" cy="300" r="4" stroke="#F9F871" fill="#F9F871">
    <animateMotion path="M 0 0 L -20 40 Z" dur="20s" repeatCount="indefinite" />
  </circle>

  <circle cx="700" cy="300" r="2" stroke="#9999FF" fill="#9999FF">
    <animateMotion path="M 0 0 L -20 40 Z" dur="30s" repeatCount="indefinite" />
  </circle>

  <circle cx="1000" cy="700" r="3" stroke="#A1F187" fill="#A1F187">
    <animateMotion path="M 0 0 L 20 -40 Z" dur="20s" repeatCount="indefinite" />
  </circle>

  <circle cx="200" cy="600" r="6" stroke="#C8FCEA" fill="#C8FCEA">
    <animateMotion path="M 0 0 L -20 40 Z" dur="40s" repeatCount="indefinite" />
  </circle>

  <circle cx="1400" cy="600" r="6" stroke="#ABA9BB" fill="#ABA9BB">
    <animateMotion path="M 0 0 L -20 -40 Z" dur="30s" repeatCount="indefinite" />
  </circle>

  <circle cx="700" cy="100" r="2" stroke="#FF7A7A" fill="#FF7A7A">
    <animateMotion path="M 0 0 L 20 40 Z" dur="20s" repeatCount="indefinite" />
  </circle>

  <circle cx="900" cy="312" r="7" stroke="#FEFEDF" fill="#FEFEDF">
    <animateMotion path="M 0 0 L -20 40 Z" dur="10s" repeatCount="indefinite" />
  </circle>

  <circle cx="555" cy="423" r="4" stroke="#FFD06D" fill="#FFD06D">
    <animateMotion path="M 0 0 l 30 5 Z" dur="20s" repeatCount="indefinite" />
  </circle>

 <!-- 旋转+平移五角 -->
  <path d="M 100 170 l 41.3 -126.7 -107.8 78.4 133 0 -107.8 -78.4 41.3 126.7" stroke="#FFD06D" fill="#FFD06D" filter="url(#f1)">
    <animateMotion path="M 140 390 L 180 360 L 140 390" dur="20s" begin="0s" repeatCount="indefinite" />
    <animateTransform attributeType="XML" attributeName="transform" begin="0s" dur="120s" type="rotate" values="0 140 390; -60 140 390; 0 140 390" keyTimes="0 ; 0.5 ; 1" repeatCount="indefinite" />
  </path>

  <path d="M 100 165 l 38.35 -117.65 -100.1 72.8 123.5 0 -100.1 -72.8 38.35 117.65" stroke="white" fill="white">
    <animateMotion path="M 140 390 L 180 360 L 140 390" dur="20s" begin="0s" repeatCount="indefinite" />
    <animateTransform attributeType="XML" attributeName="transform" begin="0s" dur="120s" type="rotate" values="0 140 390; -60 140 390; 0 140 390" keyTimes="0 ; 0.5 ; 1" repeatCount="indefinite" />
  </path>
 <!-- 旋转四角 -->
  <path d="M 700 800 l 23.3 -86.7 86.7 -23.3 -86.7 -23.3 -23.3 -86.7 -23.3 86.7 -86.7 23.3 86.7 23.3 23.3 86.7" stroke="#9999FF" fill="#9999FF" filter="url(#f1)">
    <animateTransform attributeType="XML" attributeName="transform" begin="0s" dur="35s" type="rotate" values="-30 700 500; 0 700 500; -30 700 500" keyTimes="0 ; 0.5 ; 1" repeatCount="indefinite" />
  </path>

  <path d="M 700 790 l 21.1 -78.9 78.9 -21.1 -78.9 -21.1 -21.1 -78.9 -21.1 78.9 -78.9 21.1 78.9 21.1 21.1 78.9" stroke="white" fill="white">
    <animateTransform attributeType="XML" attributeName="transform" begin="0s" dur="35s" type="rotate" values="-30 700 500; 0 700 500; -30 700 500" keyTimes="0 ; 0.5 ; 1" repeatCount="indefinite" />
  </path>

  <path d="M 1100 600 l 15.9 -59.1 59.1 -15.9 -59.1 -15.9 -15.9 -59.1 -15.9 59.1 -59.1 15.9 59.1 15.9 15.9 59.1" stroke="#F1EDFF" fill="#F1EDFF" filter="url(#f1)">
    <animateTransform attributeType="XML" attributeName="transform" begin="0s" dur="35s" type="rotate" values="-30 1100 525; 0 1100 525; -30 1100 525" keyTimes="0 ; 0.5 ; 1" repeatCount="indefinite" />
  </path>

  <path d="M 1100 595 l 14.8 -55.2 55.2 -14.8 -55.2 -14.8 -14.8 -55.2 -14.8 55.2 -55.2 14.8 55.2 14.8 14.8 55.2" stroke="white" fill="white">
    <animateTransform attributeType="XML" attributeName="transform" begin="0s" dur="35s" type="rotate" values="-30 1100 525; 0 1100 525; -30 1100 525" keyTimes="0 ; 0.5 ; 1" repeatCount="indefinite" />
  </path>

</svg>
